<svg xmlns="http://www.w3.org/2000/svg" xmlns:xlink="http://www.w3.org/1999/xlink" width="200" zoomAndPan="magnify" viewBox="0 0 150 74.999997" height="100" preserveAspectRatio="xMidYMid meet" version="1.0"><defs><g/><clipPath id="ab09655559"><path d="M 34 0 L 65 0 L 65 19.617188 L 34 19.617188 Z M 34 0 " clip-rule="nonzero"/></clipPath><clipPath id="ed255e4356"><path d="M 86 57.285156 L 105 57.285156 L 105 75 L 86 75 Z M 86 57.285156 " clip-rule="nonzero"/></clipPath><clipPath id="3256d977c7"><path d="M 38 54 L 58 54 L 58 74.871094 L 38 74.871094 Z M 38 54 " clip-rule="nonzero"/></clipPath><clipPath id="eb81dec971"><path d="M 89 0 L 108.9375 0 L 108.9375 11.113281 L 89 11.113281 Z M 89 0 " clip-rule="nonzero"/></clipPath><clipPath id="19994dd9c6"><path d="M 95 22.34375 L 114 22.34375 L 114 43 L 95 43 Z M 95 22.34375 " clip-rule="nonzero"/></clipPath><clipPath id="7eba715ff0"><path d="M 95 24 L 115 24 L 115 44.84375 L 95 44.84375 Z M 95 24 " clip-rule="nonzero"/></clipPath><clipPath id="41c73a34fd"><path d="M 96 24 L 115 24 L 115 44.84375 L 96 44.84375 Z M 96 24 " clip-rule="nonzero"/></clipPath><clipPath id="47407ba760"><path d="M 35 27 L 54.992188 27 L 54.992188 43.972656 L 35 43.972656 Z M 35 27 " clip-rule="nonzero"/></clipPath><clipPath id="4183f3ff6c"><path d="M 35 26 L 54.992188 26 L 54.992188 43.972656 L 35 43.972656 Z M 35 26 " clip-rule="nonzero"/></clipPath><clipPath id="b7ce339313"><path d="M 36 26 L 54.992188 26 L 54.992188 43 L 36 43 Z M 36 26 " clip-rule="nonzero"/></clipPath></defs><rect x="-15" width="180" fill="#ffffff" y="-7.5" height="89.999996" fill-opacity="1"/><rect x="-15" width="180" fill="#ffffff" y="-7.5" height="89.999996" fill-opacity="1"/><rect x="-15" width="180" fill="#ffffff" y="-7.5" height="89.999996" fill-opacity="1"/><path fill="#2079af" d="M 38.226562 16.503906 C 38.226562 16.503906 47.53125 21.578125 54.664062 18.15625 C 61.796875 14.730469 56.988281 9.277344 61.796875 5.152344 C 66.601562 1.027344 68.386719 -2.320312 65.75 -7.226562 C 63.113281 -12.132812 46.320312 -11.816406 40.785156 -4.8125 C 32.851562 5.230469 31.640625 12.675781 38.226562 16.503906 Z M 38.226562 16.503906 " fill-opacity="1" fill-rule="nonzero"/><g clip-path="url(#ab09655559)"><path fill="#ffffff" d="M 48.269531 19.277344 C 46.503906 19.277344 44.824219 18.976562 43.460938 18.625 C 40.554688 17.875 38.417969 16.734375 38.398438 16.722656 L 38.394531 16.722656 C 36.269531 15.503906 34.996094 13.851562 34.605469 11.8125 C 33.910156 8.195312 35.960938 3.363281 40.695312 -2.550781 C 43.886719 -6.539062 51.179688 -8.132812 56.734375 -7.648438 C 60.222656 -7.34375 62.710938 -6.269531 63.5625 -4.707031 C 66.097656 -0.0546875 64.058594 3.039062 59.945312 6.519531 C 58.027344 8.148438 57.8125 10.03125 57.605469 11.851562 C 57.347656 14.125 57.082031 16.476562 53.433594 18.207031 C 51.773438 18.996094 49.980469 19.277344 48.269531 19.277344 Z M 38.484375 16.5625 C 38.542969 16.59375 40.652344 17.714844 43.511719 18.449219 C 46.167969 19.132812 50.03125 19.617188 53.355469 18.042969 C 56.910156 16.355469 57.160156 14.160156 57.421875 11.832031 C 57.632812 9.972656 57.851562 8.054688 59.824219 6.382812 C 62.210938 4.363281 63.539062 2.742188 64.136719 1.125 C 64.796875 -0.660156 64.5625 -2.484375 63.402344 -4.617188 C 62.578125 -6.128906 60.140625 -7.167969 56.714844 -7.464844 C 51.210938 -7.945312 43.992188 -6.375 40.839844 -2.4375 C 36.140625 3.433594 34.101562 8.214844 34.785156 11.777344 C 35.167969 13.761719 36.410156 15.375 38.484375 16.5625 Z M 38.484375 16.5625 " fill-opacity="1" fill-rule="nonzero"/></g><path fill="#2079af" d="M 84.285156 80.847656 C 84.285156 80.847656 79.824219 70.875 83.078125 68.480469 C 86.332031 66.085938 90.492188 68.109375 94.824219 65.191406 C 99.160156 62.273438 88.523438 55.117188 97.097656 53.765625 C 104.898438 52.535156 109.824219 68.191406 105.378906 76.839844 C 100.9375 85.488281 86.527344 85.285156 84.285156 80.847656 Z M 84.285156 80.847656 " fill-opacity="1" fill-rule="nonzero"/><g clip-path="url(#ed255e4356)"><path fill="#ffffff" d="M 93.832031 79.03125 C 93.816406 79.03125 93.800781 79.03125 93.785156 79.03125 C 91.011719 79.023438 88.777344 78.164062 88.097656 76.84375 L 88.097656 76.839844 C 88.089844 76.824219 87.273438 75.027344 86.757812 73.046875 C 86.0625 70.367188 86.222656 68.640625 87.230469 67.914062 C 88.378906 67.085938 89.683594 66.988281 91.058594 66.882812 C 92.59375 66.765625 94.183594 66.640625 95.828125 65.558594 C 97.5625 64.414062 97.339844 62.957031 97.105469 61.417969 C 96.917969 60.203125 96.722656 58.949219 97.546875 57.84375 C 97.777344 57.542969 98.210938 57.285156 99.007812 57.785156 C 100.425781 58.675781 102.253906 61.539062 103.359375 64.59375 C 104.152344 66.785156 105.246094 70.917969 103.640625 73.976562 C 102.769531 75.628906 101.292969 76.972656 99.363281 77.859375 C 97.71875 78.617188 95.757812 79.03125 93.832031 79.03125 Z M 88.207031 76.789062 C 88.867188 78.070312 91.058594 78.902344 93.785156 78.910156 C 93.800781 78.910156 93.8125 78.910156 93.828125 78.910156 C 97.105469 78.910156 101.597656 77.605469 103.53125 73.921875 C 105.117188 70.902344 104.03125 66.808594 103.246094 64.632812 C 102.148438 61.601562 100.339844 58.765625 98.941406 57.886719 C 98.367188 57.523438 97.929688 57.535156 97.644531 57.917969 C 96.851562 58.980469 97.039062 60.210938 97.222656 61.398438 C 97.457031 62.910156 97.695312 64.472656 95.894531 65.660156 C 94.222656 66.761719 92.621094 66.882812 91.070312 67.003906 C 89.707031 67.105469 88.421875 67.207031 87.300781 68.011719 C 85 69.671875 88.148438 76.660156 88.207031 76.789062 Z M 88.207031 76.789062 " fill-opacity="1" fill-rule="nonzero"/></g><path fill="#2079af" d="M 45.726562 56.78125 C 47.121094 55.613281 52.183594 52.519531 55.042969 58.503906 C 56.660156 61.886719 61.222656 60.953125 59.65625 66.117188 C 58.085938 71.285156 52.828125 75.003906 48.492188 73.824219 C 44.160156 72.644531 37.976562 63.273438 45.726562 56.78125 Z M 45.726562 56.78125 " fill-opacity="1" fill-rule="nonzero"/><g clip-path="url(#3256d977c7)"><path fill="#ffffff" d="M 46.914062 74.703125 C 46.296875 74.703125 45.695312 74.625 45.117188 74.46875 C 42.628906 73.800781 39.363281 70.515625 38.417969 66.378906 C 38.019531 64.617188 38.078125 62.90625 38.601562 61.292969 C 39.199219 59.453125 40.386719 57.789062 42.128906 56.339844 C 42.4375 56.085938 45.21875 53.867188 48.125 54.480469 C 49.820312 54.835938 51.195312 56.082031 52.210938 58.1875 C 52.859375 59.527344 53.941406 60.203125 54.992188 60.859375 C 56.632812 61.882812 58.183594 62.851562 57.132812 66.28125 C 56.324219 68.910156 54.546875 71.324219 52.253906 72.902344 C 50.539062 74.082031 48.667969 74.703125 46.914062 74.703125 Z M 42.253906 56.484375 C 38.15625 59.878906 38.007812 63.714844 38.605469 66.335938 C 39.535156 70.410156 42.734375 73.636719 45.167969 74.289062 C 47.332031 74.871094 49.875 74.3125 52.140625 72.75 C 54.402344 71.195312 56.152344 68.820312 56.945312 66.230469 C 57.957031 62.933594 56.535156 62.046875 54.886719 61.015625 C 53.863281 60.378906 52.707031 59.65625 52.035156 58.269531 C 51.046875 56.21875 49.714844 55.007812 48.085938 54.664062 C 45.269531 54.070312 42.554688 56.234375 42.253906 56.484375 Z M 42.253906 56.484375 " fill-opacity="1" fill-rule="nonzero"/></g><path fill="#2079af" d="M 92.503906 -1.089844 C 93.851562 -2.25 98.75 -5.324219 101.519531 0.621094 C 103.082031 3.984375 107.5 3.054688 105.980469 8.191406 C 104.464844 13.328125 101.671875 6.574219 98.792969 11.179688 C 96.46875 14.898438 85.003906 5.363281 92.503906 -1.089844 Z M 92.503906 -1.089844 " fill-opacity="1" fill-rule="nonzero"/><g clip-path="url(#eb81dec971)"><path fill="#ffffff" d="M 97.457031 11.097656 C 97.28125 11.097656 97.101562 11.085938 96.914062 11.058594 C 94.21875 10.679688 90.4375 7.582031 89.320312 3.742188 C 88.714844 1.667969 88.683594 -1.386719 91.964844 -4.179688 C 92.289062 -4.457031 95.230469 -6.867188 98.300781 -6.203125 C 100.089844 -5.816406 101.542969 -4.460938 102.621094 -2.175781 C 103.304688 -0.71875 104.449219 0.015625 105.558594 0.726562 C 107.292969 1.839844 108.933594 2.890625 107.820312 6.617188 C 107.449219 7.867188 106.996094 8.585938 106.394531 8.886719 C 105.699219 9.234375 104.917969 8.941406 104.09375 8.632812 C 102.675781 8.105469 101.070312 7.503906 99.4375 10.089844 C 99.019531 10.753906 98.339844 11.097656 97.457031 11.097656 Z M 92.03125 -4.105469 L 92.097656 -4.027344 C 88.898438 -1.304688 88.929688 1.667969 89.515625 3.683594 C 90.015625 5.40625 91.128906 7.125 92.644531 8.523438 C 94.03125 9.800781 95.636719 10.671875 96.941406 10.855469 C 97.683594 10.960938 98.691406 10.894531 99.265625 9.980469 C 100.984375 7.257812 102.675781 7.886719 104.164062 8.445312 C 104.949219 8.734375 105.6875 9.011719 106.304688 8.703125 C 106.84375 8.4375 107.277344 7.734375 107.625 6.558594 C 108.695312 2.980469 107.191406 2.015625 105.449219 0.898438 C 104.367188 0.207031 103.144531 -0.578125 102.433594 -2.089844 C 101.386719 -4.3125 99.984375 -5.632812 98.257812 -6.003906 C 95.28125 -6.644531 92.414062 -4.296875 92.097656 -4.027344 Z M 92.03125 -4.105469 " fill-opacity="1" fill-rule="nonzero"/></g><g clip-path="url(#19994dd9c6)"><path fill="#2079af" d="M 103.503906 42.605469 C 102.917969 42.605469 102.339844 42.53125 101.789062 42.378906 C 99.414062 41.730469 96.292969 38.535156 95.394531 34.507812 C 95.007812 32.796875 95.070312 31.132812 95.566406 29.5625 C 96.136719 27.773438 97.269531 26.15625 98.9375 24.75 C 99.230469 24.5 101.886719 22.34375 104.664062 22.9375 C 106.28125 23.285156 107.59375 24.496094 108.566406 26.542969 C 109.183594 27.847656 110.21875 28.507812 111.222656 29.140625 C 112.789062 30.140625 114.273438 31.082031 113.265625 34.417969 C 112.496094 36.976562 110.796875 39.320312 108.605469 40.855469 C 106.96875 42.003906 105.183594 42.605469 103.503906 42.605469 Z M 99.058594 24.886719 C 95.144531 28.1875 95 31.921875 95.570312 34.46875 C 96.457031 38.429688 99.515625 41.570312 101.839844 42.207031 C 103.90625 42.769531 106.335938 42.226562 108.5 40.707031 C 110.65625 39.195312 112.332031 36.882812 113.089844 34.367188 C 114.054688 31.160156 112.695312 30.296875 111.121094 29.296875 C 110.144531 28.675781 109.039062 27.972656 108.398438 26.621094 C 107.453125 24.628906 106.183594 23.449219 104.625 23.117188 C 101.9375 22.539062 99.34375 24.644531 99.058594 24.886719 Z M 99.058594 24.886719 " fill-opacity="1" fill-rule="nonzero"/></g><path fill="#2079af" d="M 103.667969 42.949219 C 103.078125 42.949219 102.503906 42.875 101.953125 42.726562 C 99.578125 42.074219 96.457031 38.878906 95.554688 34.855469 C 95.171875 33.140625 95.230469 31.476562 95.730469 29.90625 C 96.296875 28.121094 97.433594 26.5 99.097656 25.09375 C 99.394531 24.84375 102.050781 22.6875 104.824219 23.28125 C 106.441406 23.628906 107.753906 24.84375 108.726562 26.890625 C 109.34375 28.191406 110.382812 28.851562 111.382812 29.488281 C 112.953125 30.484375 114.433594 31.425781 113.425781 34.761719 C 112.65625 37.320312 110.957031 39.667969 108.765625 41.203125 C 107.132812 42.347656 105.34375 42.949219 103.667969 42.949219 Z M 99.21875 25.230469 C 95.304688 28.535156 95.164062 32.265625 95.734375 34.816406 C 96.621094 38.777344 99.675781 41.914062 102 42.550781 C 104.066406 43.117188 106.496094 42.570312 108.660156 41.054688 C 110.820312 39.539062 112.492188 37.230469 113.25 34.710938 C 114.21875 31.503906 112.855469 30.640625 111.28125 29.640625 C 110.308594 29.019531 109.203125 28.316406 108.5625 26.96875 C 107.613281 24.972656 106.34375 23.792969 104.785156 23.460938 C 102.097656 22.886719 99.503906 24.988281 99.21875 25.230469 Z M 99.21875 25.230469 " fill-opacity="1" fill-rule="nonzero"/><path fill="#2079af" d="M 103.828125 43.296875 C 103.238281 43.296875 102.664062 43.222656 102.113281 43.070312 C 99.738281 42.417969 96.617188 39.226562 95.714844 35.199219 C 95.332031 33.488281 95.390625 31.824219 95.890625 30.253906 C 96.460938 28.464844 97.59375 26.84375 99.261719 25.4375 C 99.554688 25.191406 102.210938 23.03125 104.988281 23.628906 C 106.605469 23.972656 107.917969 25.1875 108.886719 27.234375 C 109.507812 28.539062 110.542969 29.195312 111.542969 29.832031 C 113.113281 30.828125 114.59375 31.769531 113.589844 35.105469 C 112.820312 37.664062 111.121094 40.011719 108.929688 41.546875 C 107.292969 42.691406 105.507812 43.296875 103.828125 43.296875 Z M 99.378906 25.574219 C 95.464844 28.878906 95.324219 32.609375 95.894531 35.160156 C 96.78125 39.121094 99.839844 42.257812 102.164062 42.894531 C 104.230469 43.460938 106.65625 42.914062 108.824219 41.398438 C 110.980469 39.886719 112.652344 37.574219 113.414062 35.054688 C 114.378906 31.847656 113.019531 30.984375 111.445312 29.984375 C 110.46875 29.363281 109.363281 28.664062 108.722656 27.3125 C 107.777344 25.320312 106.507812 24.140625 104.949219 23.804688 C 102.257812 23.230469 99.667969 25.335938 99.378906 25.574219 Z M 99.378906 25.574219 " fill-opacity="1" fill-rule="nonzero"/><path fill="#2079af" d="M 103.988281 43.640625 C 103.402344 43.640625 102.824219 43.566406 102.273438 43.414062 C 99.898438 42.765625 96.777344 39.570312 95.875 35.542969 C 95.492188 33.832031 95.554688 32.167969 96.050781 30.597656 C 96.621094 28.808594 97.753906 27.1875 99.421875 25.78125 C 99.714844 25.535156 102.371094 23.378906 105.148438 23.972656 C 106.765625 24.316406 108.078125 25.53125 109.050781 27.578125 C 109.667969 28.882812 110.703125 29.539062 111.707031 30.175781 C 113.273438 31.171875 114.757812 32.113281 113.75 35.453125 C 112.980469 38.007812 111.28125 40.355469 109.089844 41.890625 C 107.453125 43.039062 105.667969 43.640625 103.988281 43.640625 Z M 99.480469 25.851562 L 99.542969 25.921875 C 95.628906 29.222656 95.484375 32.953125 96.054688 35.503906 C 96.941406 39.464844 100 42.601562 102.324219 43.238281 C 104.390625 43.804688 106.820312 43.257812 108.984375 41.742188 C 111.140625 40.230469 112.816406 37.917969 113.574219 35.398438 C 114.539062 32.195312 113.179688 31.328125 111.605469 30.328125 C 110.628906 29.710938 109.523438 29.007812 108.882812 27.65625 C 107.9375 25.664062 106.667969 24.484375 105.109375 24.148438 C 102.421875 23.574219 99.828125 25.679688 99.542969 25.921875 Z M 99.480469 25.851562 " fill-opacity="1" fill-rule="nonzero"/><path fill="#2079af" d="M 104.152344 43.984375 C 103.5625 43.984375 102.988281 43.910156 102.4375 43.757812 C 100.0625 43.109375 96.9375 39.914062 96.039062 35.886719 C 95.65625 34.175781 95.714844 32.511719 96.214844 30.941406 C 96.78125 29.152344 97.917969 27.535156 99.582031 26.125 C 99.878906 25.878906 102.535156 23.722656 105.308594 24.316406 C 106.925781 24.664062 108.238281 25.875 109.210938 27.921875 C 109.828125 29.226562 110.867188 29.886719 111.867188 30.519531 C 113.433594 31.519531 114.917969 32.460938 113.910156 35.796875 C 113.140625 38.351562 111.441406 40.699219 109.25 42.234375 C 107.617188 43.382812 105.828125 43.984375 104.152344 43.984375 Z M 99.703125 26.265625 C 95.789062 29.566406 95.648438 33.300781 96.21875 35.847656 C 97.105469 39.808594 100.160156 42.949219 102.484375 43.585938 C 104.550781 44.148438 106.980469 43.605469 109.144531 42.085938 C 111.304688 40.574219 112.976562 38.261719 113.734375 35.746094 C 114.703125 32.539062 113.339844 31.675781 111.765625 30.675781 C 110.792969 30.054688 109.6875 29.351562 109.046875 28 C 108.097656 26.007812 106.828125 24.828125 105.269531 24.496094 C 102.582031 23.917969 99.988281 26.023438 99.703125 26.265625 Z M 99.703125 26.265625 " fill-opacity="1" fill-rule="nonzero"/><g clip-path="url(#7eba715ff0)"><path fill="#2079af" d="M 104.3125 44.328125 C 103.722656 44.328125 103.148438 44.253906 102.597656 44.105469 C 100.222656 43.453125 97.101562 40.257812 96.199219 36.234375 C 95.816406 34.519531 95.875 32.855469 96.375 31.285156 C 96.945312 29.5 98.078125 27.878906 99.746094 26.472656 C 100.039062 26.222656 102.695312 24.066406 105.472656 24.660156 C 107.089844 25.007812 108.402344 26.222656 109.371094 28.269531 C 109.992188 29.570312 111.027344 30.230469 112.027344 30.867188 C 113.597656 31.863281 115.078125 32.804688 114.074219 36.140625 C 113.304688 38.699219 111.605469 41.046875 109.414062 42.582031 C 107.777344 43.726562 105.988281 44.328125 104.3125 44.328125 Z M 99.804688 26.539062 L 99.863281 26.609375 C 95.949219 29.914062 95.808594 33.644531 96.378906 36.195312 C 97.265625 40.152344 100.324219 43.292969 102.648438 43.929688 C 104.714844 44.496094 107.140625 43.949219 109.308594 42.433594 C 111.464844 40.917969 113.136719 38.609375 113.898438 36.089844 C 114.863281 32.882812 113.503906 32.019531 111.929688 31.019531 C 110.953125 30.398438 109.847656 29.695312 109.207031 28.34375 C 108.261719 26.351562 106.992188 25.171875 105.433594 24.839844 C 102.742188 24.261719 100.152344 26.367188 99.863281 26.609375 Z M 99.804688 26.539062 " fill-opacity="1" fill-rule="nonzero"/></g><g clip-path="url(#41c73a34fd)"><path fill="#2079af" d="M 104.472656 44.675781 C 103.886719 44.675781 103.308594 44.601562 102.757812 44.449219 C 100.382812 43.796875 97.261719 40.605469 96.359375 36.578125 C 95.976562 34.867188 96.035156 33.203125 96.535156 31.632812 C 97.105469 29.84375 98.238281 28.222656 99.90625 26.816406 C 100.199219 26.566406 102.855469 24.410156 105.632812 25.007812 C 107.25 25.351562 108.5625 26.566406 109.535156 28.613281 C 110.152344 29.917969 111.1875 30.574219 112.1875 31.210938 C 113.757812 32.207031 115.238281 33.148438 114.234375 36.484375 C 113.464844 39.042969 111.765625 41.390625 109.574219 42.925781 C 107.9375 44.070312 106.152344 44.675781 104.472656 44.675781 Z M 100.027344 26.953125 C 96.113281 30.257812 95.96875 33.988281 96.539062 36.539062 C 97.425781 40.5 100.484375 43.636719 102.808594 44.273438 C 104.875 44.839844 107.300781 44.292969 109.46875 42.777344 C 111.625 41.265625 113.300781 38.953125 114.058594 36.433594 C 115.023438 33.226562 113.664062 32.363281 112.089844 31.363281 C 111.113281 30.742188 110.007812 30.042969 109.367188 28.691406 C 108.421875 26.699219 107.152344 25.519531 105.59375 25.183594 C 102.90625 24.609375 100.3125 26.710938 100.027344 26.953125 Z M 100.027344 26.953125 " fill-opacity="1" fill-rule="nonzero"/></g><g clip-path="url(#47407ba760)"><path fill="#2079af" d="M 45.640625 43.765625 C 46.71875 43.765625 47.746094 43.582031 48.578125 43.371094 C 50.355469 42.914062 51.660156 42.222656 51.671875 42.214844 L 51.675781 42.214844 C 52.972656 41.476562 53.75 40.472656 53.988281 39.234375 C 54.414062 37.039062 53.160156 34.105469 50.269531 30.511719 C 48.320312 28.09375 43.863281 27.125 40.472656 27.417969 C 38.339844 27.605469 36.820312 28.253906 36.296875 29.207031 C 34.75 32.027344 35.996094 33.90625 38.507812 36.019531 C 39.683594 37.007812 39.8125 38.152344 39.9375 39.257812 C 40.09375 40.636719 40.257812 42.066406 42.484375 43.117188 C 43.5 43.59375 44.597656 43.765625 45.640625 43.765625 Z M 51.617188 42.117188 C 51.582031 42.136719 50.292969 42.816406 48.546875 43.261719 C 46.925781 43.679688 44.566406 43.972656 42.535156 43.015625 C 40.363281 41.992188 40.210938 40.660156 40.050781 39.246094 C 39.921875 38.117188 39.789062 36.953125 38.582031 35.9375 C 37.125 34.710938 36.3125 33.726562 35.949219 32.746094 C 35.542969 31.660156 35.6875 30.554688 36.398438 29.257812 C 36.898438 28.339844 38.386719 27.710938 40.480469 27.53125 C 43.84375 27.238281 48.253906 28.191406 50.179688 30.582031 C 53.050781 34.148438 54.296875 37.050781 53.878906 39.214844 C 53.644531 40.417969 52.886719 41.394531 51.617188 42.117188 Z M 51.617188 42.117188 " fill-opacity="1" fill-rule="nonzero"/><path fill="#2079af" d="M 45.746094 43.566406 C 46.820312 43.566406 47.839844 43.386719 48.667969 43.175781 C 50.441406 42.722656 51.75 42.03125 51.761719 42.027344 L 51.765625 42.027344 C 53.0625 41.289062 53.839844 40.289062 54.082031 39.050781 C 54.507812 36.859375 53.261719 33.921875 50.375 30.328125 C 48.429688 27.90625 43.980469 26.933594 40.585938 27.222656 C 38.457031 27.402344 36.9375 28.050781 36.414062 29 C 34.863281 31.816406 36.105469 33.695312 38.613281 35.8125 C 39.785156 36.800781 39.914062 37.945312 40.039062 39.054688 C 40.195312 40.433594 40.355469 41.859375 42.578125 42.914062 C 43.597656 43.394531 44.699219 43.566406 45.746094 43.566406 Z M 51.714844 41.9375 C 51.679688 41.953125 50.390625 42.632812 48.640625 43.078125 C 47.015625 43.492188 44.65625 43.78125 42.625 42.820312 C 40.453125 41.792969 40.300781 40.457031 40.140625 39.042969 C 40.015625 37.914062 39.882812 36.75 38.679688 35.734375 C 37.226562 34.507812 36.414062 33.519531 36.050781 32.539062 C 35.648438 31.453125 35.792969 30.34375 36.507812 29.046875 C 37.011719 28.128906 38.5 27.5 40.597656 27.324219 C 43.960938 27.035156 48.371094 28 50.292969 30.390625 C 53.160156 33.960938 54.402344 36.867188 53.980469 39.03125 C 53.746094 40.238281 52.984375 41.214844 51.714844 41.9375 Z M 51.714844 41.9375 " fill-opacity="1" fill-rule="nonzero"/></g><g clip-path="url(#4183f3ff6c)"><path fill="#2079af" d="M 45.851562 43.367188 C 46.917969 43.367188 47.933594 43.191406 48.757812 42.980469 C 50.53125 42.53125 51.839844 41.84375 51.851562 41.835938 L 51.855469 41.835938 C 53.152344 41.101562 53.933594 40.105469 54.175781 38.871094 C 54.605469 36.675781 53.363281 33.742188 50.484375 30.144531 C 48.542969 27.722656 44.09375 26.742188 40.703125 27.023438 C 38.574219 27.203125 37.054688 27.847656 36.53125 28.792969 C 34.980469 31.605469 36.21875 33.484375 38.71875 35.601562 C 39.890625 36.597656 40.019531 37.742188 40.140625 38.847656 C 40.292969 40.230469 40.453125 41.65625 42.671875 42.707031 C 43.695312 43.195312 44.796875 43.367188 45.851562 43.367188 Z M 51.808594 41.757812 C 51.777344 41.773438 50.484375 42.449219 48.730469 42.890625 C 47.105469 43.304688 44.742188 43.589844 42.710938 42.625 C 40.539062 41.59375 40.390625 40.257812 40.234375 38.839844 C 40.109375 37.714844 39.980469 36.550781 38.78125 35.535156 C 37.328125 34.300781 36.515625 33.3125 36.152344 32.332031 C 35.753906 31.242188 35.898438 30.132812 36.613281 28.835938 C 37.121094 27.917969 38.613281 27.292969 40.710938 27.117188 C 44.078125 26.835938 48.488281 27.804688 50.410156 30.203125 C 53.269531 33.777344 54.507812 36.6875 54.082031 38.851562 C 53.84375 40.058594 53.078125 41.035156 51.808594 41.757812 Z M 51.808594 41.757812 " fill-opacity="1" fill-rule="nonzero"/><path fill="#2079af" d="M 45.957031 43.167969 C 47.015625 43.167969 48.023438 42.992188 48.847656 42.785156 C 50.621094 42.339844 51.929688 41.65625 51.941406 41.648438 L 51.945312 41.648438 C 53.242188 40.917969 54.023438 39.921875 54.265625 38.6875 C 54.699219 36.496094 53.460938 33.5625 50.589844 29.960938 C 48.65625 27.535156 44.210938 26.546875 40.820312 26.828125 C 38.691406 27 37.171875 27.640625 36.648438 28.585938 C 35.09375 31.394531 36.328125 33.273438 38.824219 35.394531 C 39.996094 36.390625 40.121094 37.535156 40.242188 38.644531 C 40.394531 40.023438 40.546875 41.449219 42.765625 42.503906 C 43.789062 42.996094 44.898438 43.167969 45.957031 43.167969 Z M 51.902344 41.574219 C 51.871094 41.589844 50.578125 42.265625 48.824219 42.707031 C 47.199219 43.117188 44.832031 43.398438 42.800781 42.429688 C 40.628906 41.394531 40.480469 40.054688 40.328125 38.636719 C 40.203125 37.511719 40.078125 36.347656 38.878906 35.332031 C 37.425781 34.097656 36.617188 33.105469 36.257812 32.121094 C 35.855469 31.03125 36.003906 29.921875 36.722656 28.625 C 37.234375 27.707031 38.730469 27.082031 40.828125 26.910156 C 44.195312 26.632812 48.605469 27.609375 50.523438 30.011719 C 53.378906 33.59375 54.613281 36.507812 54.183594 38.671875 C 53.945312 39.878906 53.175781 40.855469 51.902344 41.574219 Z M 51.902344 41.574219 " fill-opacity="1" fill-rule="nonzero"/></g><g clip-path="url(#b7ce339313)"><path fill="#2079af" d="M 46.0625 42.96875 C 47.113281 42.96875 48.117188 42.796875 48.9375 42.59375 C 50.710938 42.148438 52.019531 41.464844 52.03125 41.457031 L 52.035156 41.457031 C 53.332031 40.730469 54.113281 39.734375 54.359375 38.503906 C 54.796875 36.316406 53.5625 33.378906 50.695312 29.777344 C 48.765625 27.347656 44.324219 26.355469 40.9375 26.628906 C 38.808594 26.800781 37.289062 27.4375 36.765625 28.378906 C 35.207031 31.183594 36.4375 33.0625 38.929688 35.183594 C 40.101562 36.183594 40.226562 37.332031 40.34375 38.441406 C 40.492188 39.820312 40.644531 41.242188 42.855469 42.300781 C 43.886719 42.792969 45 42.96875 46.0625 42.96875 Z M 51.996094 41.394531 C 51.96875 41.410156 50.671875 42.082031 48.914062 42.519531 C 47.289062 42.925781 44.921875 43.207031 42.890625 42.234375 C 40.714844 41.195312 40.570312 39.855469 40.417969 38.433594 C 40.296875 37.308594 40.171875 36.148438 38.980469 35.128906 C 37.527344 33.890625 36.71875 32.902344 36.359375 31.914062 C 35.960938 30.820312 36.113281 29.710938 36.832031 28.414062 C 37.34375 27.496094 38.84375 26.871094 40.941406 26.703125 C 44.3125 26.429688 48.722656 27.414062 50.636719 29.820312 C 53.488281 33.40625 54.71875 36.324219 54.285156 38.488281 C 54.042969 39.699219 53.273438 40.675781 51.996094 41.394531 Z M 51.996094 41.394531 " fill-opacity="1" fill-rule="nonzero"/><path fill="#2079af" d="M 46.164062 42.769531 C 47.214844 42.769531 48.210938 42.601562 49.023438 42.398438 C 50.800781 41.957031 52.109375 41.277344 52.121094 41.269531 L 52.125 41.269531 C 53.421875 40.542969 54.203125 39.550781 54.449219 38.320312 C 54.890625 36.136719 53.664062 33.199219 50.804688 29.589844 C 48.878906 27.164062 44.441406 26.164062 41.050781 26.429688 C 38.929688 26.597656 37.410156 27.234375 36.882812 28.171875 C 36.152344 29.484375 35.996094 30.617188 36.402344 31.726562 C 36.761719 32.726562 37.574219 33.730469 39.035156 34.976562 C 40.207031 35.980469 40.328125 37.128906 40.445312 38.238281 C 40.589844 39.613281 40.742188 41.039062 42.949219 42.097656 C 43.980469 42.59375 45.101562 42.769531 46.164062 42.769531 Z M 52.089844 41.210938 C 52.0625 41.226562 50.765625 41.898438 49.007812 42.335938 C 47.378906 42.738281 45.007812 43.015625 42.980469 42.039062 C 40.804688 40.996094 40.660156 39.652344 40.511719 38.230469 C 40.390625 37.109375 40.269531 35.945312 39.078125 34.929688 C 37.628906 33.6875 36.820312 32.695312 36.460938 31.707031 C 36.066406 30.613281 36.21875 29.5 36.941406 28.203125 C 37.453125 27.285156 38.957031 26.660156 41.058594 26.496094 C 44.429688 26.230469 48.839844 27.21875 50.753906 29.632812 C 53.597656 33.222656 54.824219 36.144531 54.386719 38.308594 C 54.144531 39.519531 53.371094 40.496094 52.089844 41.210938 Z M 52.089844 41.210938 " fill-opacity="1" fill-rule="nonzero"/><path fill="#2079af" d="M 46.269531 42.570312 C 47.3125 42.570312 48.304688 42.402344 49.113281 42.203125 C 50.890625 41.765625 52.199219 41.085938 52.210938 41.078125 L 52.214844 41.078125 C 53.511719 40.355469 54.292969 39.367188 54.542969 38.140625 C 54.984375 35.957031 53.765625 33.019531 50.910156 29.40625 C 48.992188 26.976562 44.558594 25.972656 41.167969 26.234375 C 39.046875 26.398438 37.527344 27.027344 37 27.964844 C 36.265625 29.277344 36.109375 30.40625 36.511719 31.515625 C 36.875 32.515625 37.683594 33.519531 39.140625 34.769531 C 40.3125 35.773438 40.429688 36.921875 40.546875 38.035156 C 40.691406 39.410156 40.839844 40.832031 43.042969 41.894531 C 44.078125 42.394531 45.203125 42.570312 46.269531 42.570312 Z M 52.1875 41.03125 C 52.160156 41.046875 50.859375 41.71875 49.097656 42.148438 C 47.46875 42.550781 45.097656 42.824219 43.066406 41.84375 C 40.890625 40.796875 40.75 39.453125 40.601562 38.027344 C 40.484375 36.90625 40.367188 35.746094 39.175781 34.726562 C 37.726562 33.484375 36.921875 32.488281 36.566406 31.5 C 36.167969 30.402344 36.324219 29.289062 37.050781 27.992188 C 37.566406 27.074219 39.070312 26.449219 41.171875 26.289062 C 44.546875 26.027344 48.957031 27.027344 50.867188 29.441406 C 53.710938 33.039062 54.925781 35.960938 54.488281 38.128906 C 54.242188 39.339844 53.46875 40.316406 52.1875 41.03125 Z M 52.1875 41.03125 " fill-opacity="1" fill-rule="nonzero"/></g><path stroke-linecap="butt" transform="matrix(0.031498, 0, 0, 0.031498, 54.999999, 25.770028)" fill="none" stroke-linejoin="miter" d="M 259.31696 231.39762 C 241.830739 231.39762 226.824833 228.049195 214.299242 221.352344 C 201.773651 214.655493 192.224438 205.230296 185.527587 192.952737 C 178.830737 180.799193 175.606327 166.413366 175.606327 149.919271 C 175.606327 133.549191 178.830737 119.28738 185.527587 107.133836 C 192.224438 94.980292 201.773651 85.555095 214.299242 78.858245 C 226.824833 72.037378 241.830739 68.688953 259.31696 68.688953 C 266.137826 68.688953 273.33074 69.433047 280.647669 71.045252 C 288.088615 72.657457 294.661449 75.013756 300.242158 78.11415 C 304.458694 80.346434 307.435072 83.198796 309.047277 86.671237 C 310.659481 90.019662 311.27956 93.616119 310.783497 97.212576 C 310.41145 100.685017 309.047277 103.909427 306.814993 106.761789 C 304.706725 109.614151 301.978379 111.474387 298.753969 112.466513 C 295.405544 113.458639 291.809087 112.962576 287.964599 110.978324 C 279.15948 106.637773 270.10633 104.529505 260.929165 104.529505 C 247.039401 104.529505 236.498062 108.498009 229.553179 116.311002 C 222.484282 124.123994 219.011841 135.409428 219.011841 149.919271 C 219.011841 164.801161 222.484282 176.086594 229.553179 183.899587 C 236.498062 191.712579 247.039401 195.681083 260.929165 195.681083 C 264.773653 195.681083 268.866173 195.18502 273.454756 194.192894 C 277.919323 193.200768 282.259874 191.712579 286.600426 189.604311 C 291.064993 187.620059 295.157512 187.123996 298.629954 188.116122 C 302.102395 188.984233 304.954757 190.720453 307.18704 193.4488 C 309.419324 196.053131 310.783497 199.153524 311.27956 202.749981 C 311.899639 206.222422 311.403576 209.694863 309.915387 213.043289 C 308.427198 216.51573 305.698851 219.244076 301.606332 221.352344 C 296.39767 224.576754 289.948851 227.057069 282.259874 228.793289 C 274.570898 230.52951 266.881921 231.39762 259.31696 231.39762 Z M 409.748068 231.39762 C 393.750036 231.39762 379.860271 228.049195 367.830743 221.352344 C 355.801215 214.531478 346.376018 204.982265 339.679168 192.704705 C 332.982317 180.551161 329.633892 166.28935 329.633892 149.919271 C 329.633892 133.549191 332.858301 119.28738 339.555152 107.133836 C 346.252002 94.980292 355.553184 85.555095 367.706728 78.858245 C 379.736256 72.037378 393.750036 68.688953 409.748068 68.688953 C 425.7461 68.688953 439.75988 72.037378 451.789408 78.858245 C 463.818936 85.555095 473.120117 94.980292 479.816968 107.133836 C 486.513818 119.28738 489.862244 133.549191 489.862244 149.919271 C 489.862244 166.28935 486.513818 180.551161 479.816968 192.704705 C 473.120117 204.982265 463.818936 214.531478 451.789408 221.352344 C 439.75988 228.049195 425.7461 231.39762 409.748068 231.39762 Z M 409.748068 196.921241 C 421.405548 196.921241 430.458698 192.828721 437.155549 184.519666 C 443.852399 176.334626 447.200825 164.801161 447.200825 149.919271 C 447.200825 135.161396 443.852399 123.751947 437.279565 115.566907 C 430.70673 107.257852 421.529564 103.165332 409.748068 103.165332 C 397.966571 103.165332 388.789405 107.257852 382.216571 115.566907 C 375.643736 123.751947 372.419326 135.161396 372.419326 149.919271 C 372.419326 164.801161 375.643736 176.334626 382.216571 184.519666 C 388.789405 192.828721 397.966571 196.921241 409.748068 196.921241 Z M 533.267757 231.025573 C 527.315001 231.025573 522.726418 229.413368 519.502008 226.064943 C 516.277599 222.840533 514.665394 218.25195 514.665394 212.175178 L 514.665394 88.03541 C 514.665394 81.834623 516.401615 77.24604 519.874056 74.02163 C 523.346497 70.797221 528.183111 69.185016 534.507914 69.185016 C 539.468544 69.185016 543.561064 70.177142 546.785474 72.161394 C 549.885868 74.145646 552.73823 77.494071 555.218545 82.082654 L 599.368153 161.576751 L 643.517761 82.082654 C 646.122091 77.494071 648.974454 74.145646 652.074848 72.161394 C 655.175241 70.177142 659.267761 69.185016 664.476423 69.185016 C 670.305163 69.185016 674.893746 70.797221 678.118156 74.02163 C 681.466581 77.24604 683.078786 81.834623 683.078786 88.03541 L 683.078786 212.175178 C 683.078786 218.25195 681.590597 222.840533 678.366187 226.064943 C 675.265793 229.413368 670.67721 231.025573 664.476423 231.025573 C 658.523667 231.025573 653.935084 229.413368 650.710674 226.064943 C 647.61028 222.840533 645.998076 218.25195 645.998076 212.175178 L 645.998076 143.22242 L 614.62209 197.913367 C 612.513823 201.137776 610.281539 203.618091 607.92524 205.230296 C 605.692956 206.966517 602.592562 207.710611 598.624058 207.710611 C 594.903586 207.710611 591.927208 206.966517 589.446893 205.230296 C 587.090593 203.618091 584.982326 201.137776 582.998074 197.913367 L 551.87012 144.214546 L 551.87012 212.175178 C 551.87012 218.25195 550.381931 222.840533 547.157521 226.064943 C 544.057127 229.413368 539.468544 231.025573 533.267757 231.025573 Z M 732.809102 231.025573 C 726.236267 231.025573 721.151622 229.289352 717.555165 225.692895 C 713.958708 222.096439 712.222487 216.887777 712.222487 209.942895 L 712.222487 90.143678 C 712.222487 83.322812 713.958708 78.11415 717.555165 74.517693 C 721.151622 70.921236 726.236267 69.185016 732.809102 69.185016 C 739.381937 69.185016 744.466583 70.921236 747.939024 74.517693 C 751.535481 78.11415 753.395717 83.322812 753.395717 90.143678 L 753.395717 209.942895 C 753.395717 216.887777 751.659497 222.096439 748.06304 225.692895 C 744.590599 229.289352 739.505953 231.025573 732.809102 231.025573 Z M 801.265798 231.025573 C 788.492175 231.025573 782.043356 224.576754 782.043356 211.5551 L 782.043356 89.523599 C 782.043356 82.950764 783.655561 77.990134 786.87997 74.393678 C 790.228396 70.921236 794.568947 69.185016 799.901624 69.185016 C 804.738239 69.185016 808.458711 70.053126 810.939026 71.913362 C 813.667373 73.649583 816.643751 76.625961 820.116192 80.718481 L 884.728399 161.576751 L 884.728399 88.407458 C 884.728399 75.509819 891.053202 69.185016 903.826825 69.185016 C 910.027612 69.185016 914.740211 70.797221 917.964621 74.269662 C 921.18903 77.618087 922.925251 82.330686 922.925251 88.407458 L 922.925251 212.42321 C 922.925251 218.127934 921.437062 222.592502 918.336668 225.940927 C 915.36029 229.289352 911.391786 231.025573 906.30714 231.025573 C 901.222494 231.025573 897.25399 230.157462 894.277612 228.297226 C 891.42525 226.561006 888.324856 223.584628 884.97643 219.368092 L 820.364223 138.509821 L 820.364223 211.5551 C 820.364223 224.576754 814.03942 231.025573 801.265798 231.025573 Z M 1032.307144 231.39762 C 1014.200844 231.39762 998.946907 228.049195 986.2973 221.352344 C 973.647693 214.655493 964.09848 205.230296 957.525646 193.200768 C 950.952811 181.047224 947.604385 167.033444 947.604385 150.787381 C 947.604385 134.16927 951.076826 119.659427 958.021709 107.381868 C 964.966591 94.980292 975.011867 85.555095 987.909505 78.858245 C 1000.931159 72.037378 1016.681159 68.688953 1035.035491 68.688953 C 1042.476436 68.688953 1050.041397 69.433047 1057.854389 70.797221 C 1065.667382 72.28541 1073.232342 74.889741 1080.673288 78.858245 C 1084.517776 80.594465 1087.246122 83.07478 1088.610296 86.29919 C 1090.098485 89.523599 1090.470532 92.872025 1089.974469 96.468481 C 1089.478406 100.064938 1088.114233 103.165332 1086.005965 106.017694 C 1083.897697 108.746041 1081.169351 110.606277 1077.820925 111.722419 C 1074.4725 112.714545 1070.628012 112.218482 1066.28746 110.358246 C 1057.110295 106.017694 1046.692971 103.785411 1035.159506 103.785411 C 1020.1536 103.785411 1008.868167 107.877931 1001.551238 115.938955 C 994.110292 123.999978 990.513836 135.657459 990.513836 150.787381 C 990.513836 166.041318 994.234308 177.574783 1001.551238 185.387776 C 1009.116198 193.076752 1020.1536 196.921241 1034.787459 196.921241 C 1041.608326 196.921241 1049.297302 195.929115 1057.854389 193.820847 L 1057.854389 169.017697 L 1042.104389 169.017697 C 1031.56305 169.017697 1026.230372 164.181082 1026.230372 154.507854 C 1026.230372 144.958641 1031.56305 140.122026 1042.104389 140.122026 L 1075.34061 140.122026 C 1086.005965 140.122026 1091.462658 145.454704 1091.462658 156.244074 L 1091.462658 205.726359 C 1091.462658 210.190926 1090.470532 214.035415 1088.610296 217.135808 C 1086.750059 220.236202 1083.773681 222.468486 1079.805177 223.832659 C 1072.612264 226.188958 1064.923287 228.049195 1056.862263 229.413368 C 1048.677223 230.777541 1040.492184 231.39762 1032.307144 231.39762 Z M 1032.307144 231.39762 " stroke="#2079af" stroke-width="8.395312" stroke-opacity="1" stroke-miterlimit="4"/><g fill="#2079af" fill-opacity="1"><g transform="translate(68.671972, 12.721793)"><g><path d="M 0.640625 0.015625 C 0.535156 0.015625 0.4375 0.00390625 0.34375 -0.015625 C 0.257812 -0.046875 0.1875 -0.0859375 0.125 -0.140625 C 0.09375 -0.160156 0.078125 -0.191406 0.078125 -0.234375 C 0.078125 -0.253906 0.0820312 -0.273438 0.09375 -0.296875 C 0.113281 -0.316406 0.132812 -0.328125 0.15625 -0.328125 C 0.1875 -0.328125 0.21875 -0.320312 0.25 -0.3125 C 0.300781 -0.269531 0.359375 -0.238281 0.421875 -0.21875 C 0.484375 -0.195312 0.554688 -0.1875 0.640625 -0.1875 C 0.734375 -0.1875 0.804688 -0.203125 0.859375 -0.234375 C 0.910156 -0.273438 0.9375 -0.328125 0.9375 -0.390625 C 0.9375 -0.441406 0.910156 -0.476562 0.859375 -0.5 C 0.816406 -0.53125 0.738281 -0.554688 0.625 -0.578125 C 0.5 -0.609375 0.398438 -0.640625 0.328125 -0.671875 C 0.253906 -0.703125 0.195312 -0.742188 0.15625 -0.796875 C 0.125 -0.847656 0.109375 -0.914062 0.109375 -1 C 0.109375 -1.082031 0.128906 -1.15625 0.171875 -1.21875 C 0.222656 -1.28125 0.289062 -1.328125 0.375 -1.359375 C 0.457031 -1.398438 0.550781 -1.421875 0.65625 -1.421875 C 0.84375 -1.421875 1 -1.375 1.125 -1.28125 C 1.144531 -1.257812 1.15625 -1.242188 1.15625 -1.234375 C 1.164062 -1.222656 1.171875 -1.207031 1.171875 -1.1875 C 1.171875 -1.15625 1.160156 -1.128906 1.140625 -1.109375 C 1.128906 -1.085938 1.113281 -1.078125 1.09375 -1.078125 C 1.070312 -1.078125 1.054688 -1.078125 1.046875 -1.078125 C 1.035156 -1.085938 1.019531 -1.097656 1 -1.109375 C 0.945312 -1.140625 0.894531 -1.164062 0.84375 -1.1875 C 0.789062 -1.207031 0.726562 -1.21875 0.65625 -1.21875 C 0.5625 -1.21875 0.488281 -1.195312 0.4375 -1.15625 C 0.382812 -1.125 0.359375 -1.078125 0.359375 -1.015625 C 0.359375 -0.960938 0.378906 -0.921875 0.421875 -0.890625 C 0.472656 -0.859375 0.554688 -0.832031 0.671875 -0.8125 C 0.785156 -0.78125 0.878906 -0.75 0.953125 -0.71875 C 1.035156 -0.6875 1.09375 -0.644531 1.125 -0.59375 C 1.164062 -0.539062 1.1875 -0.476562 1.1875 -0.40625 C 1.1875 -0.320312 1.160156 -0.25 1.109375 -0.1875 C 1.066406 -0.125 1.003906 -0.0703125 0.921875 -0.03125 C 0.835938 0 0.742188 0.015625 0.640625 0.015625 Z M 0.640625 0.015625 "/></g></g></g><g fill="#2079af" fill-opacity="1"><g transform="translate(69.948993, 12.721793)"><g><path d="M 0.609375 0.015625 C 0.566406 0.015625 0.535156 0.00390625 0.515625 -0.015625 C 0.492188 -0.046875 0.484375 -0.0820312 0.484375 -0.125 L 0.484375 -1.203125 L 0.125 -1.203125 C 0.0390625 -1.203125 0 -1.234375 0 -1.296875 C 0 -1.367188 0.0390625 -1.40625 0.125 -1.40625 L 1.109375 -1.40625 C 1.179688 -1.40625 1.21875 -1.367188 1.21875 -1.296875 C 1.21875 -1.234375 1.179688 -1.203125 1.109375 -1.203125 L 0.734375 -1.203125 L 0.734375 -0.125 C 0.734375 -0.0820312 0.722656 -0.046875 0.703125 -0.015625 C 0.679688 0.00390625 0.648438 0.015625 0.609375 0.015625 Z M 0.609375 0.015625 "/></g></g></g><g fill="#2079af" fill-opacity="1"><g transform="translate(71.175975, 12.721793)"><g><path d="M 1.4375 -0.15625 C 1.4375 -0.132812 1.4375 -0.117188 1.4375 -0.109375 C 1.4375 -0.078125 1.425781 -0.046875 1.40625 -0.015625 C 1.382812 0.00390625 1.351562 0.015625 1.3125 0.015625 C 1.289062 0.015625 1.269531 0.0078125 1.25 0 C 1.238281 -0.0195312 1.226562 -0.0390625 1.21875 -0.0625 L 1.09375 -0.328125 L 0.390625 -0.328125 L 0.265625 -0.0625 C 0.253906 -0.0390625 0.238281 -0.0195312 0.21875 0 C 0.207031 0.0078125 0.191406 0.015625 0.171875 0.015625 C 0.140625 0.015625 0.109375 0.00390625 0.078125 -0.015625 C 0.0546875 -0.046875 0.046875 -0.078125 0.046875 -0.109375 C 0.046875 -0.117188 0.0507812 -0.132812 0.0625 -0.15625 L 0.609375 -1.34375 C 0.617188 -1.363281 0.632812 -1.378906 0.65625 -1.390625 C 0.6875 -1.410156 0.710938 -1.421875 0.734375 -1.421875 C 0.765625 -1.421875 0.789062 -1.410156 0.8125 -1.390625 C 0.84375 -1.378906 0.863281 -1.363281 0.875 -1.34375 Z M 0.484375 -0.53125 L 1.015625 -0.53125 L 0.75 -1.125 Z M 0.484375 -0.53125 "/></g></g></g><g fill="#2079af" fill-opacity="1"><g transform="translate(72.661163, 12.721793)"><g><path d="M 1.03125 -1.375 C 1.050781 -1.40625 1.082031 -1.421875 1.125 -1.421875 C 1.144531 -1.421875 1.164062 -1.40625 1.1875 -1.375 C 1.21875 -1.351562 1.234375 -1.328125 1.234375 -1.296875 C 1.234375 -1.273438 1.222656 -1.25 1.203125 -1.21875 L 0.75 -0.671875 L 0.75 -0.125 C 0.75 -0.0820312 0.738281 -0.046875 0.71875 -0.015625 C 0.695312 0.00390625 0.664062 0.015625 0.625 0.015625 C 0.582031 0.015625 0.550781 0.00390625 0.53125 -0.015625 C 0.507812 -0.046875 0.5 -0.0820312 0.5 -0.125 L 0.5 -0.671875 L 0.046875 -1.21875 C 0.0234375 -1.25 0.015625 -1.273438 0.015625 -1.296875 C 0.015625 -1.328125 0.0234375 -1.351562 0.046875 -1.375 C 0.0664062 -1.40625 0.09375 -1.421875 0.125 -1.421875 C 0.15625 -1.421875 0.1875 -1.40625 0.21875 -1.375 L 0.625 -0.875 Z M 1.03125 -1.375 "/></g></g></g><g fill="#2079af" fill-opacity="1"><g transform="translate(73.90816, 12.721793)"><g/></g></g><g fill="#2079af" fill-opacity="1"><g transform="translate(74.450594, 12.721793)"><g><path d="M 0.609375 0.015625 C 0.566406 0.015625 0.535156 0.00390625 0.515625 -0.015625 C 0.492188 -0.046875 0.484375 -0.0820312 0.484375 -0.125 L 0.484375 -1.203125 L 0.125 -1.203125 C 0.0390625 -1.203125 0 -1.234375 0 -1.296875 C 0 -1.367188 0.0390625 -1.40625 0.125 -1.40625 L 1.109375 -1.40625 C 1.179688 -1.40625 1.21875 -1.367188 1.21875 -1.296875 C 1.21875 -1.234375 1.179688 -1.203125 1.109375 -1.203125 L 0.734375 -1.203125 L 0.734375 -0.125 C 0.734375 -0.0820312 0.722656 -0.046875 0.703125 -0.015625 C 0.679688 0.00390625 0.648438 0.015625 0.609375 0.015625 Z M 0.609375 0.015625 "/></g></g></g><g fill="#2079af" fill-opacity="1"><g transform="translate(75.677576, 12.721793)"><g><path d="M 0.734375 0.015625 C 0.535156 0.015625 0.382812 -0.03125 0.28125 -0.125 C 0.1875 -0.226562 0.140625 -0.375 0.140625 -0.5625 L 0.140625 -1.296875 C 0.140625 -1.328125 0.148438 -1.351562 0.171875 -1.375 C 0.203125 -1.40625 0.234375 -1.421875 0.265625 -1.421875 C 0.304688 -1.421875 0.335938 -1.40625 0.359375 -1.375 C 0.378906 -1.351562 0.390625 -1.328125 0.390625 -1.296875 L 0.390625 -0.5625 C 0.390625 -0.4375 0.414062 -0.34375 0.46875 -0.28125 C 0.53125 -0.21875 0.617188 -0.1875 0.734375 -0.1875 C 0.835938 -0.1875 0.914062 -0.21875 0.96875 -0.28125 C 1.03125 -0.34375 1.0625 -0.4375 1.0625 -0.5625 L 1.0625 -1.296875 C 1.0625 -1.328125 1.070312 -1.351562 1.09375 -1.375 C 1.125 -1.40625 1.160156 -1.421875 1.203125 -1.421875 C 1.234375 -1.421875 1.257812 -1.40625 1.28125 -1.375 C 1.3125 -1.351562 1.328125 -1.328125 1.328125 -1.296875 L 1.328125 -0.5625 C 1.328125 -0.375 1.273438 -0.226562 1.171875 -0.125 C 1.066406 -0.03125 0.921875 0.015625 0.734375 0.015625 Z M 0.734375 0.015625 "/></g></g></g><g fill="#2079af" fill-opacity="1"><g transform="translate(77.144749, 12.721793)"><g><path d="M 1.21875 -1.421875 C 1.257812 -1.421875 1.289062 -1.40625 1.3125 -1.375 C 1.332031 -1.351562 1.34375 -1.328125 1.34375 -1.296875 L 1.34375 -0.125 C 1.34375 -0.0820312 1.332031 -0.046875 1.3125 -0.015625 C 1.289062 0.00390625 1.257812 0.015625 1.21875 0.015625 C 1.175781 0.015625 1.144531 0 1.125 -0.03125 L 0.390625 -0.984375 L 0.390625 -0.125 C 0.390625 -0.0820312 0.378906 -0.046875 0.359375 -0.015625 C 0.335938 0.00390625 0.304688 0.015625 0.265625 0.015625 C 0.234375 0.015625 0.207031 0.00390625 0.1875 -0.015625 C 0.164062 -0.046875 0.15625 -0.0820312 0.15625 -0.125 L 0.15625 -1.296875 C 0.15625 -1.328125 0.164062 -1.351562 0.1875 -1.375 C 0.207031 -1.40625 0.238281 -1.421875 0.28125 -1.421875 C 0.320312 -1.421875 0.351562 -1.40625 0.375 -1.375 L 1.09375 -0.421875 L 1.09375 -1.296875 C 1.09375 -1.328125 1.101562 -1.351562 1.125 -1.375 C 1.15625 -1.40625 1.1875 -1.421875 1.21875 -1.421875 Z M 1.21875 -1.421875 "/></g></g></g><g fill="#2079af" fill-opacity="1"><g transform="translate(78.639946, 12.721793)"><g><path d="M 0.28125 0 C 0.238281 0 0.207031 -0.0078125 0.1875 -0.03125 C 0.164062 -0.0507812 0.15625 -0.0820312 0.15625 -0.125 L 0.15625 -1.28125 C 0.15625 -1.320312 0.164062 -1.351562 0.1875 -1.375 C 0.207031 -1.394531 0.238281 -1.40625 0.28125 -1.40625 L 1 -1.40625 C 1.039062 -1.40625 1.070312 -1.394531 1.09375 -1.375 C 1.113281 -1.363281 1.125 -1.34375 1.125 -1.3125 C 1.125 -1.28125 1.113281 -1.253906 1.09375 -1.234375 C 1.070312 -1.210938 1.039062 -1.203125 1 -1.203125 L 0.40625 -1.203125 L 0.40625 -0.8125 L 0.953125 -0.8125 C 0.992188 -0.8125 1.023438 -0.800781 1.046875 -0.78125 C 1.066406 -0.769531 1.078125 -0.75 1.078125 -0.71875 C 1.078125 -0.6875 1.066406 -0.660156 1.046875 -0.640625 C 1.023438 -0.617188 0.992188 -0.609375 0.953125 -0.609375 L 0.40625 -0.609375 L 0.40625 -0.203125 L 1 -0.203125 C 1.039062 -0.203125 1.070312 -0.191406 1.09375 -0.171875 C 1.113281 -0.160156 1.125 -0.132812 1.125 -0.09375 C 1.125 -0.0625 1.113281 -0.0351562 1.09375 -0.015625 C 1.070312 -0.00390625 1.039062 0 1 0 Z M 0.28125 0 "/></g></g></g><g fill="#2079af" fill-opacity="1"><g transform="translate(79.818889, 12.721793)"><g><path d="M 0.28125 0 C 0.238281 0 0.207031 -0.0078125 0.1875 -0.03125 C 0.164062 -0.0507812 0.15625 -0.0820312 0.15625 -0.125 L 0.15625 -1.28125 C 0.15625 -1.320312 0.164062 -1.351562 0.1875 -1.375 C 0.207031 -1.394531 0.238281 -1.40625 0.28125 -1.40625 L 0.671875 -1.40625 C 0.898438 -1.40625 1.078125 -1.34375 1.203125 -1.21875 C 1.335938 -1.101562 1.40625 -0.929688 1.40625 -0.703125 C 1.40625 -0.484375 1.335938 -0.3125 1.203125 -0.1875 C 1.078125 -0.0625 0.898438 0 0.671875 0 Z M 0.65625 -0.203125 C 0.976562 -0.203125 1.140625 -0.367188 1.140625 -0.703125 C 1.140625 -1.035156 0.976562 -1.203125 0.65625 -1.203125 L 0.40625 -1.203125 L 0.40625 -0.203125 Z M 0.65625 -0.203125 "/></g></g></g><g fill="#2079af" fill-opacity="1"><g transform="translate(60.195837, 41.417909)"><g><path d="M 2.296875 0.078125 C 2.015625 0.078125 1.71875 0.0507812 1.40625 0 C 1.101562 -0.0625 0.847656 -0.148438 0.640625 -0.265625 C 0.503906 -0.328125 0.410156 -0.40625 0.359375 -0.5 C 0.304688 -0.601562 0.285156 -0.710938 0.296875 -0.828125 C 0.316406 -0.941406 0.359375 -1.039062 0.421875 -1.125 C 0.492188 -1.207031 0.582031 -1.265625 0.6875 -1.296875 C 0.800781 -1.328125 0.925781 -1.3125 1.0625 -1.25 C 1.238281 -1.164062 1.4375 -1.097656 1.65625 -1.046875 C 1.882812 -1.003906 2.097656 -0.984375 2.296875 -0.984375 C 2.609375 -0.984375 2.828125 -1.023438 2.953125 -1.109375 C 3.078125 -1.191406 3.140625 -1.296875 3.140625 -1.421875 C 3.140625 -1.523438 3.09375 -1.609375 3 -1.671875 C 2.914062 -1.742188 2.765625 -1.800781 2.546875 -1.84375 L 1.71875 -2.015625 C 0.820312 -2.210938 0.375 -2.679688 0.375 -3.421875 C 0.375 -3.742188 0.460938 -4.023438 0.640625 -4.265625 C 0.816406 -4.515625 1.0625 -4.707031 1.375 -4.84375 C 1.695312 -4.976562 2.066406 -5.046875 2.484375 -5.046875 C 2.722656 -5.046875 2.96875 -5.019531 3.21875 -4.96875 C 3.46875 -4.914062 3.6875 -4.832031 3.875 -4.71875 C 4.019531 -4.644531 4.109375 -4.539062 4.140625 -4.40625 C 4.179688 -4.28125 4.175781 -4.15625 4.125 -4.03125 C 4.082031 -3.914062 4 -3.828125 3.875 -3.765625 C 3.757812 -3.710938 3.609375 -3.722656 3.421875 -3.796875 C 3.285156 -3.859375 3.128906 -3.90625 2.953125 -3.9375 C 2.785156 -3.96875 2.625 -3.984375 2.46875 -3.984375 C 2.207031 -3.984375 2.003906 -3.9375 1.859375 -3.84375 C 1.722656 -3.75 1.65625 -3.628906 1.65625 -3.484375 C 1.65625 -3.378906 1.695312 -3.296875 1.78125 -3.234375 C 1.863281 -3.171875 2.015625 -3.113281 2.234375 -3.0625 L 3.046875 -2.890625 C 3.953125 -2.691406 4.40625 -2.234375 4.40625 -1.515625 C 4.40625 -1.191406 4.316406 -0.910156 4.140625 -0.671875 C 3.972656 -0.429688 3.726562 -0.242188 3.40625 -0.109375 C 3.09375 0.015625 2.722656 0.078125 2.296875 0.078125 Z M 2.296875 0.078125 "/></g></g></g><g fill="#2079af" fill-opacity="1"><g transform="translate(67.550352, 41.417909)"><g><path d="M 2.84375 0.078125 C 2.34375 0.078125 1.898438 -0.0234375 1.515625 -0.234375 C 1.140625 -0.453125 0.847656 -0.753906 0.640625 -1.140625 C 0.429688 -1.523438 0.328125 -1.972656 0.328125 -2.484375 C 0.328125 -3.003906 0.429688 -3.453125 0.640625 -3.828125 C 0.847656 -4.210938 1.140625 -4.507812 1.515625 -4.71875 C 1.898438 -4.9375 2.34375 -5.046875 2.84375 -5.046875 C 3.34375 -5.046875 3.78125 -4.9375 4.15625 -4.71875 C 4.539062 -4.507812 4.835938 -4.210938 5.046875 -3.828125 C 5.265625 -3.453125 5.375 -3.003906 5.375 -2.484375 C 5.375 -1.972656 5.265625 -1.523438 5.046875 -1.140625 C 4.835938 -0.753906 4.539062 -0.453125 4.15625 -0.234375 C 3.78125 -0.0234375 3.34375 0.078125 2.84375 0.078125 Z M 2.84375 -1 C 3.207031 -1 3.492188 -1.128906 3.703125 -1.390625 C 3.921875 -1.660156 4.03125 -2.023438 4.03125 -2.484375 C 4.03125 -2.953125 3.925781 -3.3125 3.71875 -3.5625 C 3.507812 -3.820312 3.21875 -3.953125 2.84375 -3.953125 C 2.476562 -3.953125 2.191406 -3.820312 1.984375 -3.5625 C 1.773438 -3.3125 1.671875 -2.953125 1.671875 -2.484375 C 1.671875 -2.023438 1.773438 -1.660156 1.984375 -1.390625 C 2.191406 -1.128906 2.476562 -1 2.84375 -1 Z M 2.84375 -1 "/></g></g></g><g fill="#2079af" fill-opacity="1"><g transform="translate(76.004843, 41.417909)"><g><path d="M 2.84375 0.078125 C 2.34375 0.078125 1.898438 -0.0234375 1.515625 -0.234375 C 1.140625 -0.453125 0.847656 -0.753906 0.640625 -1.140625 C 0.429688 -1.523438 0.328125 -1.972656 0.328125 -2.484375 C 0.328125 -3.003906 0.429688 -3.453125 0.640625 -3.828125 C 0.847656 -4.210938 1.140625 -4.507812 1.515625 -4.71875 C 1.898438 -4.9375 2.34375 -5.046875 2.84375 -5.046875 C 3.34375 -5.046875 3.78125 -4.9375 4.15625 -4.71875 C 4.539062 -4.507812 4.835938 -4.210938 5.046875 -3.828125 C 5.265625 -3.453125 5.375 -3.003906 5.375 -2.484375 C 5.375 -1.972656 5.265625 -1.523438 5.046875 -1.140625 C 4.835938 -0.753906 4.539062 -0.453125 4.15625 -0.234375 C 3.78125 -0.0234375 3.34375 0.078125 2.84375 0.078125 Z M 2.84375 -1 C 3.207031 -1 3.492188 -1.128906 3.703125 -1.390625 C 3.921875 -1.660156 4.03125 -2.023438 4.03125 -2.484375 C 4.03125 -2.953125 3.925781 -3.3125 3.71875 -3.5625 C 3.507812 -3.820312 3.21875 -3.953125 2.84375 -3.953125 C 2.476562 -3.953125 2.191406 -3.820312 1.984375 -3.5625 C 1.773438 -3.3125 1.671875 -2.953125 1.671875 -2.484375 C 1.671875 -2.023438 1.773438 -1.660156 1.984375 -1.390625 C 2.191406 -1.128906 2.476562 -1 2.84375 -1 Z M 2.84375 -1 "/></g></g></g><g fill="#2079af" fill-opacity="1"><g transform="translate(84.459334, 41.417909)"><g><path d="M 1.0625 0.0625 C 0.65625 0.0625 0.453125 -0.140625 0.453125 -0.546875 L 0.453125 -4.390625 C 0.453125 -4.597656 0.503906 -4.753906 0.609375 -4.859375 C 0.710938 -4.972656 0.847656 -5.03125 1.015625 -5.03125 C 1.160156 -5.03125 1.273438 -5 1.359375 -4.9375 C 1.441406 -4.882812 1.539062 -4.796875 1.65625 -4.671875 L 3.6875 -2.125 L 3.6875 -4.421875 C 3.6875 -4.828125 3.882812 -5.03125 4.28125 -5.03125 C 4.476562 -5.03125 4.628906 -4.976562 4.734375 -4.875 C 4.835938 -4.769531 4.890625 -4.617188 4.890625 -4.421875 L 4.890625 -0.515625 C 4.890625 -0.335938 4.84375 -0.195312 4.75 -0.09375 C 4.65625 0.0078125 4.523438 0.0625 4.359375 0.0625 C 4.203125 0.0625 4.078125 0.0351562 3.984375 -0.015625 C 3.890625 -0.078125 3.789062 -0.171875 3.6875 -0.296875 L 1.65625 -2.84375 L 1.65625 -0.546875 C 1.65625 -0.140625 1.457031 0.0625 1.0625 0.0625 Z M 1.0625 0.0625 "/></g></g></g></svg>